<svg width="48" height="48" viewBox="0 0 48 48" fill="none" xmlns="http://www.w3.org/2000/svg">
<g clip-path="url(#clip0_303_25)">
<path d="M24.0001 48C37.2548 48 48.0002 37.2548 48.0002 23.9999C48.0002 10.745 37.2548 0 24.0001 0C10.7454 0 0 10.7452 0 24.0001C0 37.255 10.7452 48 24.0001 48ZM24.0001 3.83996C35.116 3.83996 44.16 12.884 44.16 23.9999C44.16 35.1158 35.116 44.1599 24.0001 44.1599C12.8842 44.1599 3.84013 35.1158 3.84013 23.9999C3.84013 12.884 12.8832 3.83996 24.0001 3.83996Z" fill="#323238"/>
<path d="M19.5399 35.3203C20.8656 35.3203 21.94 34.2462 21.94 32.9203V14.6803C21.94 13.3546 20.8658 12.2802 19.5399 12.2802C18.2142 12.2802 17.1398 13.3544 17.1398 14.6803V32.9203C17.1398 34.2462 18.214 35.3203 19.5399 35.3203Z" fill="#323238"/>
<path d="M29.1398 35.3203C30.4655 35.3203 31.5399 34.2462 31.5399 32.9203V14.6803C31.5399 13.3546 30.4657 12.2802 29.1398 12.2802C27.8139 12.2802 26.7399 13.3546 26.7399 14.6803V32.9203C26.7399 34.2462 27.8141 35.3203 29.1398 35.3203Z" fill="#323238"/>
</g>
<defs>
<clipPath id="clip0_303_25">
<rect width="48" height="48" fill="white"/>
</clipPath>
</defs>
</svg>
